<svg id="Layer_1" data-name="Layer 1" xmlns="http://www.w3.org/2000/svg" xmlns:xlink="http://www.w3.org/1999/xlink" viewBox="0 0 53.75 153.8"><defs><style>.cls-1{fill:#d52e27;}.cls-2{fill:#ab221c;}.cls-3{fill:url(#linear-gradient);}</style><linearGradient id="linear-gradient" x1="19.83" y1="9.52" x2="19.83" y2="153.8" gradientUnits="userSpaceOnUse"><stop offset="0" stop-color="#fff" stop-opacity="0"/><stop offset="0.02" stop-color="#fff" stop-opacity="0.05"/><stop offset="0.09" stop-color="#fff" stop-opacity="0.25"/><stop offset="0.17" stop-color="#fff" stop-opacity="0.43"/><stop offset="0.25" stop-color="#fff" stop-opacity="0.58"/><stop offset="0.34" stop-color="#fff" stop-opacity="0.71"/><stop offset="0.43" stop-color="#fff" stop-opacity="0.82"/><stop offset="0.54" stop-color="#fff" stop-opacity="0.9"/><stop offset="0.65" stop-color="#fff" stop-opacity="0.96"/><stop offset="0.78" stop-color="#fff" stop-opacity="0.99"/><stop offset="1" stop-color="#fff"/></linearGradient></defs><title>pages_background</title><circle class="cls-1" cx="19.81" cy="13.18" r="0.53" transform="translate(3.1 30.11) rotate(-79)"/><path class="cls-1" d="M19.75,16.39a1,1,0,1,1-.88,1A.95.95,0,0,1,19.75,16.39Z"/><path class="cls-2" d="M19.29,21.06a1.61,1.61,0,1,1-1,2A1.61,1.61,0,0,1,19.29,21.06Z"/><path class="cls-1" d="M19.28,27.67A1,1,0,1,1,19,29,1,1,0,0,1,19.28,27.67Z"/><circle class="cls-1" cx="19.81" cy="33.26" r="0.53" transform="translate(-17.84 24.26) rotate(-45.77)"/><path class="cls-1" d="M19.75,37.12a1,1,0,1,1-.88,1A.95.95,0,0,1,19.75,37.12Z"/><path class="cls-2" d="M19.29,41.79a1.61,1.61,0,1,1-1,2A1.61,1.61,0,0,1,19.29,41.79Z"/><path class="cls-1" d="M19.28,48.4A1,1,0,1,1,19,49.72,1,1,0,0,1,19.28,48.4Z"/><circle class="cls-1" cx="19.81" cy="53.99" r="0.53" transform="translate(-32.69 30.52) rotate(-45.77)"/><path class="cls-1" d="M19.75,57.84a1,1,0,1,1-.88,1A.95.95,0,0,1,19.75,57.84Z"/><path class="cls-2" d="M19.29,62.52a1.61,1.61,0,1,1-1,2A1.61,1.61,0,0,1,19.29,62.52Z"/><path class="cls-1" d="M19.28,69.13A1,1,0,1,1,19,70.45,1,1,0,0,1,19.28,69.13Z"/><circle class="cls-1" cx="19.81" cy="74.72" r="0.53" transform="translate(-47.54 36.79) rotate(-45.77)"/><path class="cls-1" d="M19.75,78.57a1,1,0,1,1-.88,1A.95.95,0,0,1,19.75,78.57Z"/><path class="cls-2" d="M19.29,83.24a1.61,1.61,0,1,1-1,2A1.61,1.61,0,0,1,19.29,83.24Z"/><path class="cls-1" d="M19.28,89.86A1,1,0,1,1,19,91.18,1,1,0,0,1,19.28,89.86Z"/><circle class="cls-1" cx="19.81" cy="95.44" r="0.53" transform="translate(-62.39 43.06) rotate(-45.77)"/><path class="cls-1" d="M19.75,99.3a1,1,0,1,1-.88,1A.95.95,0,0,1,19.75,99.3Z"/><path class="cls-2" d="M19.29,104a1.61,1.61,0,1,1-1,2A1.61,1.61,0,0,1,19.29,104Z"/><path class="cls-1" d="M19.28,110.58A1,1,0,1,1,19,111.9,1,1,0,0,1,19.28,110.58Z"/><circle class="cls-1" cx="19.81" cy="116.17" r="0.53" transform="translate(-77.24 49.33) rotate(-45.77)"/><path class="cls-1" d="M19.75,120a1,1,0,1,1-.88,1A.95.95,0,0,1,19.75,120Z"/><path class="cls-2" d="M19.29,124.7a1.61,1.61,0,1,1-1,2A1.61,1.61,0,0,1,19.29,124.7Z"/><path class="cls-1" d="M19.28,131.31a1,1,0,1,1-.26,1.32A1,1,0,0,1,19.28,131.31Z"/><circle class="cls-1" cx="19.81" cy="136.9" r="0.53" transform="translate(-92.1 55.6) rotate(-45.77)"/><rect class="cls-3" x="6.88" y="9.52" width="25.9" height="144.29"/></svg>